<?xml version="1.0" encoding="UTF-8"?>
<svg version="1.1" xmlns="http://www.w3.org/2000/svg" width="2000" height="380">
<path d="M0 0 C1.00804687 0.84433594 2.01609375 1.68867187 3.0546875 2.55859375 C29.83482917 25.70716982 40.68085744 59.87653201 45 94 C45.09571289 94.70809814 45.19142578 95.41619629 45.29003906 96.14575195 C46.31620799 104.74773253 46.24376058 113.41201541 46.25 122.0625 C46.25067474 122.90392548 46.25134949 123.74535095 46.25204468 124.61227417 C46.19715628 167.86279171 36.9826928 210.90202561 5.54443359 242.5390625 C-9.74298128 257 -9.74298128 257 -16 257 C-13.85499408 260.86101066 -11.39675329 263.91138935 -8.375 267.125 C-4.97086638 270.80501131 -1.70162033 274.52915378 1.4375 278.4375 C4.65943101 282.43223986 8.00655495 286.24554349 11.5 290 C15.78955113 294.61004336 19.80410672 299.37782956 23.75390625 304.28515625 C26.0883059 307.10673495 28.51990598 309.80590712 31 312.5 C35.10270302 316.9578056 38.95302974 321.56215839 42.75 326.28125 C45.81343204 329.98289705 49.06487058 333.4966566 52.34765625 337.00390625 C54 339 54 339 54 341 C41.23969422 341.48883609 28.48164847 341.86079001 15.71385193 342.08805561 C9.78306116 342.19720387 3.85871841 342.34488235 -2.06835938 342.58422852 C-43.62612063 344.21919993 -43.62612063 344.21919993 -52.51171875 336.56591797 C-56.177511 332.33669841 -58.61733657 327.86195918 -60.75740051 322.7134552 C-62.839356 318.16710459 -65.93260342 314.41707277 -69 310.5 C-70.13624987 308.96051807 -71.26833465 307.41794526 -72.39453125 305.87109375 C-78.29590367 297.86220629 -84.36175601 289.97630384 -90.4128418 282.08032227 C-92 280 -92 280 -93.33984375 277.77319336 C-95.71653144 275.2346812 -97.43446181 275.43351409 -100.86328125 275.3125 C-102.04946045 275.25610352 -103.23563965 275.19970703 -104.45776367 275.14160156 C-105.72982666 275.09487305 -107.00188965 275.04814453 -108.3125 275 C-139.16217158 273.34676082 -171.48505077 266.59891633 -195 245 C-195.79921875 244.34 -196.5984375 243.68 -197.421875 243 C-213.53757904 229.38673448 -224.15990821 210.74459487 -231 191 C-231.22139648 190.36578125 -231.44279297 189.7315625 -231.67089844 189.078125 C-247.26919166 143.26815959 -246.09185613 84.6537511 -225.08422852 40.69287109 C-210.42438178 11.02288261 -187.26041738 -9.94110452 -155.86376953 -20.734375 C-107.03267519 -36.53944937 -40.65618737 -34.06478915 0 0 Z M-138.05859375 53.5625 C-158.19781825 78.84796497 -158.35463588 115.28498394 -155.53125 146 C-153.72595579 161.31033916 -149.39779655 176.59834154 -140 189 C-139.51789063 189.66257813 -139.03578125 190.32515625 -138.5390625 191.0078125 C-131.22244419 200.34559609 -119.70474513 205.87088279 -108.15625 207.6875 C-91.55396613 209.33129048 -75.40903686 207.61926896 -61.6875 197.3125 C-46.14484322 184.01157256 -40.71878513 162.66398959 -39 143 C-38.68769084 137.28418985 -38.66974339 131.56570326 -38.68432617 125.84277344 C-38.68747901 123.26714384 -38.66395545 120.69267569 -38.63867188 118.1171875 C-38.58249425 103.65969119 -39.89921785 89.27182041 -44.8125 75.5625 C-45.07256836 74.81935547 -45.33263672 74.07621094 -45.60058594 73.31054688 C-50.15961011 60.67286587 -56.67880106 49.59137781 -68.9375 43.0625 C-78.16053612 39.11669913 -86.85848602 37.46093226 -96.875 37.5625 C-97.9263916 37.57007324 -98.9777832 37.57764648 -100.06103516 37.58544922 C-114.78856746 37.89744426 -127.79048544 42.60985113 -138.05859375 53.5625 Z " fill="#000000" transform="translate(1397,32)"/>
<path d="M0 0 C34.65 0 69.3 0 105 0 C116.28378378 21.43918919 116.28378378 21.43918919 121 30.5 C124.65180392 37.50789622 128.31463486 44.50969451 132 51.5 C136.20305504 59.47224633 140.37387512 67.46103957 144.5390625 75.453125 C147.679273 81.47588771 150.832327 87.4916396 154 93.5 C158.20305504 101.47224633 162.37387512 109.46103957 166.5390625 117.453125 C169.679273 123.47588771 172.832327 129.4916396 176 135.5 C179.68536624 142.49030757 183.34775709 149.49233138 187 156.5 C190.73895618 163.67249666 194.48425271 170.84152756 198.25 178 C198.61351562 178.69158203 198.97703125 179.38316406 199.3515625 180.09570312 C201.93751633 185.00626438 204.54656022 189.9043749 207.15917969 194.80078125 C207.71428726 195.84135681 207.71428726 195.84135681 208.28060913 196.9029541 C209.18700229 198.602007 210.09349143 200.30100868 211 202 C210.94006866 200.83454651 210.88013733 199.66909302 210.81838989 198.46832275 C208.83207894 158.78639401 208.74933258 119.1668353 208.85594678 79.44729853 C208.88318356 69.10950644 208.89341642 58.77169528 208.90496635 48.43387604 C208.92342232 32.28920487 208.96336309 16.14466393 209 0 C232.76 0 256.52 0 281 0 C281 97.35 281 194.7 281 295 C246.35 295 211.7 295 176 295 C172.12966497 288.54944161 168.52531335 282.28629794 165.25 275.5625 C162.0596272 269.10090207 158.81667098 262.67743531 155.4375 256.3125 C150.76159505 247.49494319 146.18871141 238.62594256 141.625 229.75 C136.73273274 220.23713227 131.83247083 210.72912005 126.875 201.25 C122.43569446 192.76165755 118.02314353 184.25972841 113.625 175.75 C113.15077103 174.83247955 113.15077103 174.83247955 112.66696167 173.89642334 C112.19264206 172.97872162 112.19264206 172.97872162 111.70874023 172.04248047 C111.0701538 170.80696405 110.43156331 169.57144972 109.79296875 168.3359375 C109.47666 167.72394501 109.16035126 167.11195251 108.8344574 166.48141479 C104.39298726 157.88942502 99.93837751 149.30424769 95.484375 140.71875 C93.09657006 136.11581754 90.71144005 131.51150838 88.328125 126.90625 C81.94338299 114.57295891 75.53374894 102.25510053 69 90 C69.14455693 93.27089096 69.29091562 96.54169933 69.4375 99.8125 C69.47681641 100.70259766 69.51613281 101.59269531 69.55664062 102.50976562 C69.59853516 103.44111328 69.64042969 104.37246094 69.68359375 105.33203125 C69.72782471 106.33455933 69.77205566 107.3370874 69.81762695 108.36999512 C69.93677873 110.74162591 70.07867212 113.11225298 70.24621582 115.48095703 C71.39627145 132.30781586 71.12885225 149.18676595 71.10139394 166.04285598 C71.09507228 170.58849037 71.09454972 175.13412568 71.09336853 179.67976379 C71.09028087 188.25688454 71.08210266 196.83399229 71.07201904 205.41110736 C71.05866869 217.02305468 71.05333724 228.63500565 71.04751682 240.24695873 C71.03816057 258.49798219 71.0182247 276.74897825 71 295 C47.57 295 24.14 295 0 295 C0 197.65 0 100.3 0 0 Z " fill="#000000" transform="translate(680,8)"/>
<path d="M0 0 C-0.63481329 6.04508133 -2.90914087 11.37886546 -5.11328125 16.98828125 C-5.52410446 18.0460527 -5.93492767 19.10382416 -6.35820007 20.19364929 C-7.22722168 22.42792485 -8.09901507 24.66112403 -8.97338867 26.89331055 C-10.30284444 30.28784618 -11.62384839 33.68557237 -12.94335938 37.08398438 C-13.79117017 39.26061012 -14.63946197 41.43704859 -15.48828125 43.61328125 C-15.88010086 44.61982254 -16.27192047 45.62636383 -16.6756134 46.66340637 C-18.96979109 52.51335564 -21.38924547 58.28407745 -24 64 C-29.47996323 62.26948529 -34.8057725 60.29626756 -40.125 58.125 C-63.44545497 48.71899539 -90.35448007 41.06210272 -114.78125 51.1484375 C-130.30238094 58.69100956 -139.22592317 72.62648966 -144.8125 88.375 C-154.31518671 119.18674176 -155.30027782 158.27398627 -140.12988281 187.47314453 C-132.73879999 201.0709723 -122.86866708 209.22844458 -108 214 C-100.98412188 215.80114419 -94.22680929 216.35570409 -87 216.3125 C-85.49505981 216.30404053 -85.49505981 216.30404053 -83.9597168 216.29541016 C-62.44771989 215.95017909 -42.55355688 209.44104739 -22.71362305 201.5402832 C-21.87871338 201.20988037 -21.04380371 200.87947754 -20.18359375 200.5390625 C-19.44681396 200.24209473 -18.71003418 199.94512695 -17.95092773 199.63916016 C-16 199 -16 199 -13 199 C-13 221.44 -13 243.88 -13 267 C-26.10559639 272.95708927 -26.10559639 272.95708927 -33.1875 275.0625 C-34.02410156 275.31217529 -34.86070312 275.56185059 -35.72265625 275.8190918 C-55.2774672 281.39056423 -75.42784534 283.22230274 -95.6875 283.1875 C-96.39476227 283.18656342 -97.10202454 283.18562683 -97.83071899 283.18466187 C-134.79782431 283.0786731 -169.27020492 273.66108078 -196.625 247.8125 C-225.75387864 217.34743426 -234.48321275 174.15027732 -234.3125 133.3125 C-234.31034485 132.38457642 -234.3081897 131.45665283 -234.30596924 130.50061035 C-234.25617064 117.14595127 -234.03103737 104.06641268 -231 91 C-230.80132324 90.12118164 -230.60264648 89.24236328 -230.39794922 88.33691406 C-222.05659617 52.53470211 -203.75945521 20.50686906 -172.171875 0.484375 C-121.48857104 -30.38943933 -51.92500535 -25.84340863 0 0 Z " fill="#000000" transform="translate(253,24)"/>
<path d="M0 0 C29.04 0 58.08 0 88 0 C97.55639432 20.23707033 107.05545409 40.42894668 116.26953125 60.8125 C120.82739323 70.87741078 125.53567533 80.87202547 130.25439453 90.86230469 C130.55819534 91.5066748 130.86199615 92.15104492 131.17500305 92.81494141 C131.99335185 94.55010607 132.8136203 96.28436501 133.6340332 98.01855469 C134.8411028 100.65318094 135.95293046 103.29849164 137 106 C139.30520553 103.11723844 140.93383423 100.27840829 142.46875 96.92578125 C142.94755615 95.88695801 143.4263623 94.84813477 143.91967773 93.77783203 C144.44118408 92.63427246 144.96269043 91.49071289 145.5 90.3125 C146.06336302 89.08683747 146.62726321 87.86142173 147.19165039 86.63623047 C148.44106747 83.9229245 149.68819033 81.20857879 150.93408203 78.49365234 C154.74619371 70.19378643 158.59548881 61.91105347 162.4375 53.625 C163.2518912 51.8680917 164.06626298 50.1111744 164.88061523 48.35424805 C166.87250522 44.05705926 168.86505014 39.76017452 170.85778809 35.46337891 C171.96715291 33.07084047 173.0759263 30.67802876 174.18457031 28.28515625 C175.83823601 24.716539 177.49446994 21.14912557 179.15286255 17.58270264 C179.75373007 16.28952816 180.35374256 14.99595601 180.95285034 13.70196533 C181.76962338 11.93825066 182.5897968 10.17611188 183.41015625 8.4140625 C183.86527588 7.4338916 184.32039551 6.4537207 184.78930664 5.44384766 C186 3 186 3 188 0 C190.81117911 -0.28621686 193.40115429 -0.37819403 196.21337891 -0.34057617 C197.0622316 -0.34101425 197.91108429 -0.34145233 198.78565979 -0.34190369 C201.59952568 -0.33980882 204.41280033 -0.31644515 207.2265625 -0.29296875 C209.17426223 -0.28737527 211.12196618 -0.283104 213.06967163 -0.28010559 C218.20230715 -0.26863727 223.334689 -0.23915304 228.46722412 -0.20599365 C233.70207284 -0.17533553 238.93696244 -0.16160937 244.171875 -0.14648438 C254.44802827 -0.11428521 264.72399306 -0.06306492 275 0 C273.35795163 4.20641484 271.41058868 8.17074643 269.2890625 12.15234375 C268.92499298 12.8401442 268.56092346 13.52794464 268.18582153 14.23658752 C267.00158617 16.47167212 265.81347119 18.70466525 264.625 20.9375 C263.80104478 22.48955042 262.97715196 24.04163398 262.15332031 25.59375 C256.80650412 35.65636956 251.39339513 45.6807604 245.9140625 55.671875 C242.62033706 61.6814001 239.37130837 67.71476076 236.125 73.75 C235.53944336 74.83861328 234.95388672 75.92722656 234.35058594 77.04882812 C233.16098027 79.26098568 231.97152784 81.47322566 230.78222656 83.68554688 C227.2763491 90.20551844 223.76512676 96.72261299 220.25488281 103.24023438 C217.3113606 108.70607048 214.36918107 114.17262112 211.4296875 119.640625 C205.89200761 129.93919242 200.34499938 140.2324349 194.75 150.5 C194.09813721 151.69737793 194.09813721 151.69737793 193.43310547 152.91894531 C192.99627441 153.71913086 192.55944336 154.51931641 192.109375 155.34375 C191.67461853 156.16910248 191.23986206 156.99445496 190.79193115 157.84481812 C189.45472227 160.19933784 188.09550634 162.32866155 186.5508728 164.53598022 C177.59700174 177.94934792 177.60655566 190.39889549 177.8046875 206.1328125 C177.80089235 208.70784491 177.79268785 211.28287421 177.78030396 213.85787964 C177.76175335 219.89279866 177.78694864 225.92601208 177.834427 231.96072376 C177.89114514 239.52203795 177.87901954 247.08306705 177.8671875 254.64453125 C177.84643392 268.09719222 177.92778519 281.5468054 178 295 C151.27 295 124.54 295 97 295 C97.10183594 287.17925781 97.20367188 279.35851562 97.30859375 271.30078125 C97.33971105 266.282944 97.36629269 261.26586849 97.37695312 256.24804688 C97.39421592 248.31980848 97.42633462 240.39396311 97.55883789 232.46655273 C98.89357953 191.86761378 98.89357953 191.86761378 82.87713623 155.6867981 C79.79210403 151.27110439 77.37543531 146.51193881 74.875 141.75 C73.90704829 139.98250741 72.93611867 138.21663917 71.9609375 136.453125 C68.71499562 130.5163255 65.60500134 124.51140028 62.5 118.5 C58.42608912 110.61337288 54.27828956 102.77768207 50 95 C45.72170965 87.22231648 41.57395882 79.38660357 37.5 71.5 C33.40460956 63.57222027 29.23524745 55.6949721 24.9375 47.875 C20.77210482 40.29179172 16.68959983 32.67074397 12.6875 25 C12.22013428 24.10522949 11.75276855 23.21045898 11.27124023 22.28857422 C7.42976428 14.89825458 3.72619784 7.45239567 0 0 Z " fill="#000000" transform="translate(1703,8)"/>
<path d="M0 0 C26.73 0 53.46 0 81 0 C81 75.9 81 151.8 81 230 C118.29 230 155.58 230 194 230 C194 251.45 194 272.9 194 295 C129.98 295 65.96 295 0 295 C0 197.65 0 100.3 0 0 Z " fill="#000000" transform="translate(1495,8)"/>
<path d="M0 0 C26.4 0 52.8 0 80 0 C80 75.9 80 151.8 80 230 C117.62 230 155.24 230 194 230 C194 251.45 194 272.9 194 295 C129.98 295 65.96 295 0 295 C0 197.65 0 100.3 0 0 Z " fill="#000000" transform="translate(297,8)"/>
<path d="M0 0 C26.4 0 52.8 0 80 0 C80 97.35 80 194.7 80 295 C53.6 295 27.2 295 0 295 C0 197.65 0 100.3 0 0 Z " fill="#000000" transform="translate(1024,8)"/>
<path d="M0 0 C26.4 0 52.8 0 80 0 C80 97.35 80 194.7 80 295 C53.6 295 27.2 295 0 295 C0 197.65 0 100.3 0 0 Z " fill="#000000" transform="translate(537,8)"/>
</svg>
